<svg xmlns="http://www.w3.org/2000/svg" viewBox="0 0 48 48">
<path fill="#c5cae9" d="M40,42H9V4h31V42z"></path><rect width="3" height="3" x="13" y="17" fill="#7986cb"></rect><rect width="17" height="3" x="19" y="17" fill="#7986cb"></rect><rect width="3" height="3" x="13" y="23" fill="#7986cb"></rect><rect width="17" height="3" x="19" y="23" fill="#7986cb"></rect><rect width="3" height="3" x="13" y="29" fill="#7986cb"></rect><rect width="17" height="3" x="19" y="29" fill="#7986cb"></rect><rect width="23" height="3" x="13" y="9" fill="#7986cb"></rect><path fill="#43a047" d="M48,38c0,5.5-4.5,10-10,10s-10-4.5-10-10s4.5-10,10-10S48,32.5,48,38L48,38z"></path><polygon fill="#fff" points="44,36 40,36 40,32 36,32 36,36 32,36 32,40 36,40 36,44 40,44 40,40 44,40"></polygon>
</svg>